<svg width="52" height="25" viewBox="0 0 52 25" fill="none" xmlns="http://www.w3.org/2000/svg">
<path d="M23.5871 20.0133H0.459881C0.231811 20.0133 0.046875 19.8248 0.046875 19.5923V4.43854C0.046875 4.20608 0.231811 4.01758 0.459881 4.01758H23.5871C23.8152 4.01758 24.0001 4.20608 24.0001 4.43854V19.5923C24.0001 19.8248 23.8151 20.0133 23.5871 20.0133Z" fill="#41479B"/>
<path d="M24.0002 4.43854C24.0002 4.20608 23.8152 4.01758 23.5871 4.01758H21.7394L14.0884 9.12683V4.01758H9.95853V9.12683L2.30756 4.01758H0.459882C0.231811 4.01758 0.046875 4.20608 0.046875 4.43854V5.52722L6.61105 9.91072H0.046875V14.1201H6.61105L0.046875 18.5037V19.5923C0.046875 19.8248 0.231811 20.0133 0.459882 20.0133H2.30761L9.95862 14.9041V20.0133H14.0885V14.9041L21.7395 20.0133H23.5872C23.8153 20.0133 24.0002 19.8248 24.0002 19.5923V18.5037L17.4361 14.1202H24.0002V9.91077H17.436L24.0002 5.52722V4.43854Z" fill="#F5F5F5"/>
<path d="M24.0001 10.7526H13.2625V4.01758H10.7845V10.7526H0.046875V13.2782H10.7845V20.0133H13.2625V13.2782H24.0001V10.7526Z" fill="#FF4B55"/>
<path d="M8.4187 14.1201L0.0585938 19.6514C0.0878334 19.8547 0.252277 20.0133 0.459855 20.0133H1.02869L9.93579 14.1202H8.4187V14.1201Z" fill="#FF4B55"/>
<path d="M16.2515 14.1201H14.7344L23.6285 20.0046C23.8358 19.9821 23.9994 19.8096 23.9994 19.5924V19.2463L16.2515 14.1201Z" fill="#FF4B55"/>
<path d="M0.046875 4.90318L7.61547 9.91071H9.13257L0.287483 4.05859C0.146196 4.12549 0.046875 4.26926 0.046875 4.4385V4.90318Z" fill="#FF4B55"/>
<path d="M15.605 9.91077L23.9852 4.36611C23.9504 4.16955 23.7895 4.01758 23.5866 4.01758H22.9949L14.0879 9.91077H15.605Z" fill="#FF4B55"/>
<path d="M48.25 9.51562L42 15.7656L35.75 9.51562" stroke="white" stroke-width="1.5" stroke-linecap="round" stroke-linejoin="round"/>
</svg>
